<?xml version='1.0' encoding='utf-8'?>
<svg xmlns="http://www.w3.org/2000/svg" xmlns:xlink="http://www.w3.org/1999/xlink" width="250.65195" height="148.37538">
<defs>
<filter id="filter3408">
<feGaussianBlur stdDeviation="4.141052" id="feGaussianBlur3410"/>
</filter>
<linearGradient id="linearGradient3304" xlink:href="#linearGradient3298" y1="0.673913" y2="0.282608" x1="0.267606" x2="0.647887"/>
<linearGradient id="linearGradient3476">
<stop offset="0" style="stop-color:#fff" id="stop3478"/>
</linearGradient>
<linearGradient id="linearGradient3202" xlink:href="#linearGradient3196" y1="0.566934" y2="0.566934" x1="-0.997953" x2="0.5"/>
<linearGradient id="linearGradient3228" xlink:href="#linearGradient3222" y1="-Infinity" y2="-Infinity" x1="0" x2="1"/>
<linearGradient id="linearGradient3210" xlink:href="#linearGradient3204" y1="0.465194" y2="0.470549" x1="1.047522" x2="-0.663253"/>
<linearGradient id="linearGradient3482" xlink:href="#linearGradient3476" y1="0.5" y2="0.5" x1="1.200338" x2="0.193523"/>
<linearGradient id="linearGradient3196">
<stop offset="0" id="stop3198"/>
</linearGradient>
<linearGradient id="linearGradient3248">
<stop offset="0" style="stop-color:#869b7a" id="stop3250"/>
<stop offset="1" style="stop-color:#ebedeb" id="stop3252"/>
</linearGradient>
<linearGradient id="linearGradient3298">
<stop offset="0" id="stop3300"/>
</linearGradient>
<linearGradient id="linearGradient3222">
<stop offset="0" style="stop-opacity:.294" id="stop3224"/>
<stop offset="1" style="stop-color:#fff;stop-opacity:.294" id="stop3226"/>
</linearGradient>
<linearGradient id="linearGradient3204">
<stop offset="0" style="stop-color:#fff" id="stop3206"/>
</linearGradient>
<radialGradient fx="498.12442" fy="542.14819" cx="498.12442" cy="542.14819" gradientTransform="matrix(0.105918, 0.0677102, -0.0960326, 0.150222, 435.42, 523.137)" spreadMethod="reflect" r="33.96875" id="radialGradient3292" xlink:href="#linearGradient3248" gradientUnits="userSpaceOnUse"/>
<radialGradient fx="498.12442" fy="542.14819" cx="498.12442" cy="542.14819" gradientTransform="matrix(0.105918, 0.0677102, -0.0960326, 0.150222, 433.036, 521.554)" spreadMethod="reflect" r="33.96875" id="radialGradient3289" xlink:href="#linearGradient3248" gradientUnits="userSpaceOnUse"/>
</defs>
<g>
<g style="stroke-linecap:round;stroke-linejoin:bevel">
<g style="stroke-width:.1">
<g style="fill:#7f0000">
<path style="filter:url(#filter3408)" id="path3306" d="m 26.9375,26.5316 c -11.8714,0 -21.4375,9.56604 -21.4375,21.4375 v 80 c 0,11.8715 9.56607,21.4063 21.4375,21.4063 h 133.562 c 5.62048,-0.21051 12.5639,-5.72839 19.625,-13.4375 0.053741,-0.049561 0.101532,-0.107605 0.15625,-0.15625 15.0742,-13.4031 33.9288,-32.7733 33.6562,-47.8125 0.068512,-13.9029 -18.7809,-33.9996 -33.4375,-47.625 -7.18353,-7.91407 -14.2847,-13.5984 -20,-13.8125 h -133.562 z  m 165.5938,51.8437 c 4.31647,0 7.8125,3.52728 7.8125,7.84375 0,4.31647 -3.49603,7.8125 -7.8125,7.8125 -4.31644,0 -7.8125,-3.49603 -7.8125,-7.8125 0,-4.31647 3.49603,-7.84375 7.8125,-7.84375 z "/>
<path id="rect2630" d="m 22.4375,20.5316 c -11.8714,0 -21.4375,9.56604 -21.4375,21.4375 v 80 c 0,11.8715 9.56607,21.4063 21.4375,21.4063 h 133.562 c 5.62048,-0.21051 12.5639,-5.72839 19.625,-13.4375 0.053741,-0.049561 0.101532,-0.107605 0.15625,-0.15625 15.0742,-13.4031 33.9288,-32.7733 33.6562,-47.8125 0.068512,-13.9029 -18.7809,-33.9996 -33.4375,-47.625 -7.18353,-7.91407 -14.2847,-13.5984 -20,-13.8125 h -133.562 z  m 165.5938,51.8437 c 4.31647,0 7.8125,3.52728 7.8125,7.84375 0,4.31647 -3.49603,7.8125 -7.8125,7.8125 -4.31644,0 -7.8125,-3.49603 -7.8125,-7.8125 0,-4.31647 3.49603,-7.84375 7.8125,-7.84375 z "/>
<rect width="156.96446" x="7.89038" y="29.456296" rx="14.616955" height="105.25887" ry="14.616955" id="rect3454"/>
</g>
<rect width="135.96446" x="18.39038" y="40.956296" rx="2.732243" ry="2.732243" height="83.5" style="fill:#eeeeec" id="rect2636"/>
<path style="fill:#7f0000" id="path3456" d="m 22.4375,20.5316 c -11.8714,0 -21.4375,9.56604 -21.4375,21.4375 v 80 c 0,11.8715 9.56607,21.4063 21.4375,21.4063 h 4 c -11.8714,0 -21.4375,-9.53479 -21.4375,-21.4063 v -80 c 0,-11.8715 9.56607,-21.4375 21.4375,-21.4375 h -4 z "/>
<path style="fill:#72e03e" id="path3469" d="m 173.7812,44.0004 v 73 c 1.10269,-1.03778 2.22232,-2.18188 3.34375,-3.40625 0.037048,-0.03418 0.05603,-0.060181 0.09375,-0.09375 10.3951,-9.24267 23.4067,-22.5978 23.2188,-32.9688 0.047272,-9.58735 -12.9554,-23.4477 -23.0625,-32.8437 -1.20911,-1.33203 -2.40448,-2.57111 -3.59375,-3.6875 z  m 14.25,28.375 c 4.31647,0 7.8125,3.52728 7.8125,7.84375 0,4.31647 -3.49603,7.8125 -7.8125,7.8125 -4.31644,0 -7.8125,-3.49603 -7.8125,-7.8125 0,-4.31647 3.49603,-7.84375 7.8125,-7.84375 z "/>
</g>
<path style="fill:#7f0000;stroke:url(#linearGradient3482);stroke-width:2" id="path3474" d="m 173.7812,43.5004 v 72.9893 c 1.10269,-1.03778 2.21878,-2.15893 3.34024,-3.3833 0.037048,-0.03418 0.070007,-0.074219 0.107727,-0.107788 10.3951,-9.24267 23.3971,-22.6003 23.2092,-32.9712 0.047272,-9.58734 -12.9512,-23.4459 -23.0583,-32.842 -1.20911,-1.33204 -2.40955,-2.5686 -3.59882,-3.68499 z "/>
</g>
<g style="fill-rule:evenodd">
<path style="fill:#7f0000;stroke:url(#linearGradient3210)" id="path2414" d="m 153.6562,29.3313 c 0,0 6.29614,0.495049 10,9.5 0.618164,2.27478 0.607208,82.293 0.375,83.875 -0.224579,8.29004 -9.25,12.5 -9.25,12.5"/>
<path style="fill:none;stroke:url(#linearGradient3202)" id="path2416" d="m 19.6778,28.8313 c 0,0 -6.29615,0.495049 -10,9.5 -0.61817,2.27478 -0.60721,82.293 -0.375,83.875 0.22457,8.29004 9.25,12.5 9.25,12.5"/>
</g>
<g style="stroke-linecap:round;stroke-linejoin:bevel">
<path style="stroke:url(#linearGradient3228);stroke-width:2" id="path3214" d="m 196.687,79.7063 a 8.90574,8.90574 0 1,1 -17.8115,0 8.90574,8.90574 0 1,1 17.8115,0 z "/>
<g style="stroke-width:3.379">
<path style="fill:url(#radialGradient3292)" id="path3230" d="m 223.5312,3.5629 c -13.1513,0.06616 -27.782,8.72052 -37.25,23.5312 -2.48346,3.88482 -4.44794,7.92309 -5.875,11.9688 l 4.0938,4.0938 c 1.44363,-4.4043 3.56,-8.85059 6.3125,-13.1562 11.7275,-18.3452 30.7142,-27.2703 44.5312,-18.4375 13.817,8.83288 15.3838,30.9048 3.65625,49.25 -11.7275,18.3451 -32.4017,26.1766 -46.2188,17.3437 -2.33118,-1.49023 -4.26364,-3.32697 -5.8125,-5.4375 l -2.9062,.7812 -.875,.5312 -.3438,.6875 -.0625,.0312 c 1.95654,2.9397 4.42255,5.44763 7.4375,7.375 15.2877,9.77296 40.1396,2.1687 53.3125,-18.4375 13.1729,-20.6062 9.63138,-46.3208 -5.65625,-56.0938 -4.29965,-2.74866 -9.1976,-4.05713 -14.3438,-4.03125 z "/>
<path style="fill:url(#radialGradient3289)" id="path3262" d="m 220.125,1.0004 c -13.1512,0.06622 -27.7507,8.72052 -37.2188,23.5312 -2.367,3.70269 -4.24933,7.52081 -5.65625,11.375 l 4.0625,4.0625 c 1.43582,-4.20319 3.46924,-8.45704 6.09375,-12.5625 11.7275,-18.3452 30.7142,-27.2391 44.5312,-18.4062 13.817,8.83282 15.3838,30.8736 3.65625,49.2188 -11.7275,18.3452 -32.4017,26.1766 -46.2188,17.3437 -1.21817,-0.778748 -2.30942,-1.63641 -3.3125,-2.59375 l -2,.5312 -.875,.5312 -.3438,.6875 -.875,.7188 c 1.43777,1.55653 3.052,2.95959 4.875,4.125 15.2877,9.77301 40.1083,2.1687 53.2812,-18.4375 13.1729,-20.6062 9.66263,-46.352 -5.625,-56.125 -4.29965,-2.74866 -9.22885,-4.02588 -14.375,-4 z  m -45.3438,59.5625 c 0.739899,3.88739 2.05856,7.50714 3.96875,10.6562 l -3.9688,-10.6562 z "/>
</g>
</g>
<path style="opacity:.359;fill:url(#linearGradient3304);fill-rule:evenodd" id="path3296" d="m 177.4062,35.5813 c 0.5,0.875 7.5,7.75 7.5,7.75 l 1.375,-5.5 -7.125,-6 -1.75,3.75 z "/>
<path style="fill:url(#radialGradient3289);stroke-linejoin:bevel;stroke-linecap:round;stroke-width:3.379" id="path3412" d="m 220.125,1.0004 c -13.1512,0.06622 -27.7507,8.72052 -37.2188,23.5312 -2.367,3.70269 -4.24933,7.52081 -5.65625,11.375 l 4.0625,4.0625 c 1.43582,-4.20319 3.46924,-8.45704 6.09375,-12.5625 11.7275,-18.3452 30.7142,-27.2391 44.5312,-18.4062 13.817,8.83282 15.3838,30.8736 3.65625,49.2188 -11.7275,18.3452 -32.4017,26.1766 -46.2188,17.3437 -1.21817,-0.778748 -2.30942,-1.63641 -3.3125,-2.59375 l -2,.5312 -.875,.5312 -.3438,.6875 -.875,.7188 c 1.43777,1.55653 3.052,2.95959 4.875,4.125 15.2877,9.77301 40.1083,2.1687 53.2812,-18.4375 13.1729,-20.6062 9.66263,-46.352 -5.625,-56.125 -4.29965,-2.74866 -9.22885,-4.02588 -14.375,-4 z  m -45.3438,59.5625 c 0.739899,3.88739 2.05856,7.50714 3.96875,10.6562 l -3.9688,-10.6562 z "/>
</g>
</svg>